<svg xmlns="http://www.w3.org/2000/svg" viewBox="0 0 17.14 19.588"><defs><style>.a{fill:#8c8c8d;}</style></defs><path class="a" d="M15.3,2.449H13.467V.459A.46.46,0,0,0,13.008,0h-1.53a.46.46,0,0,0-.459.459V2.449h-4.9V.459A.46.46,0,0,0,5.662,0H4.132a.46.46,0,0,0-.459.459V2.449H1.836A1.837,1.837,0,0,0,0,4.285V17.752a1.837,1.837,0,0,0,1.836,1.836H15.3a1.837,1.837,0,0,0,1.836-1.836V4.285A1.837,1.837,0,0,0,15.3,2.449Zm-.23,15.3H2.066a.23.23,0,0,1-.23-.23V6.121H15.3v11.4A.23.23,0,0,1,15.074,17.752Z"/></svg>