<svg xmlns="http://www.w3.org/2000/svg" viewBox="0 0 112.37 130.03"><defs><style>.cls-1,.cls-2{fill:none;stroke:#f68170;stroke-miterlimit:10;}.cls-1{stroke-width:6px;}.cls-2{stroke-width:4px;}</style></defs><title>Asset 2</title><g id="Layer_2" data-name="Layer 2"><g id="Layer_1-2" data-name="Layer 1"><path class="cls-1" d="M4.2,122.48a40.46,40.46,0,0,0,4.66-11.34,38.35,38.35,0,0,0,.68-5.65c0-1.2,0-2.12,0-2.68C9,88.6,8.66,75.12,8.2,48.14,8.07,40.84,8,34.4,11.53,27.48c3-5.89,6.57-8.31,7.67-9a20.49,20.49,0,0,1,12-3,30.86,30.86,0,0,1,10-8.67A32.14,32.14,0,0,1,54.53,3.14C68.63,2,79.68,8.33,83.86,10.81c5.38,3.19,12.88,7.64,17.67,17a37.59,37.59,0,0,1,4,18q-.84,22.66-1.67,45.33a57.94,57.94,0,0,0,4.67,30.34,37,37,0,0,1-13.33,4.66c-14.87,2.13-26.32-5.77-29.34-8a29.34,29.34,0,0,1-18.66-.33,38.27,38.27,0,0,1-43,4.67Z"/><path class="cls-2" d="M28.7,74.14a6.58,6.58,0,0,1,4.83-2.33,6.42,6.42,0,0,1,4.33,1.67"/><path class="cls-2" d="M84.43,75.14a6.58,6.58,0,0,0-4.83-2.33,6.42,6.42,0,0,0-4.33,1.67"/><path class="cls-2" d="M47.53,99a14.79,14.79,0,0,0,19.67.5"/><path class="cls-1" d="M97.86,58.31c-.32,8-.27,14.47-.16,19a58.75,58.75,0,0,1,0,7c-.81,8.66-5.56,14.84-7.17,17-6.74,9-19.48,17.79-33.17,18.19-2.78.08-22.07-1.53-33.66-17a37.51,37.51,0,0,1-7-17.5q-.18-12.17-.34-24.34a22.08,22.08,0,0,0,11.5-3.33A22.42,22.42,0,0,0,37,45.64,79.85,79.85,0,0,0,57.7,59.31C73.18,66.38,90,67,97.86,66.64"/><path class="cls-2" d="M13.86,63.14A10.35,10.35,0,0,0,14,83.64"/><path class="cls-2" d="M99.12,63.14A10.35,10.35,0,0,1,99,83.64"/></g></g></svg>